<?xml version="1.0" encoding="utf-8"?>
<!-- Generator: Adobe Illustrator 16.0.4, SVG Export Plug-In . SVG Version: 6.00 Build 0)  -->
<!DOCTYPE svg PUBLIC "-//W3C//DTD SVG 1.1//EN" "http://www.w3.org/Graphics/SVG/1.1/DTD/svg11.dtd">
<svg class="logotype" version="1.1" id="Calque_1" xmlns="http://www.w3.org/2000/svg" xmlns:xlink="http://www.w3.org/1999/xlink" x="0px" y="0px"
	 viewBox="0 0 100 100" enable-background="new 0 0 700 200" xml:space="preserve">
<g>
	<polygon fill="#173D7D" points="288.386,73.628 314.902,73.628 301.648,60.371 	"/>
	<polygon fill="#122142" points="288.386,47.112 288.386,73.628 301.615,60.374 	"/>
	<polygon fill="#124A7A" points="314.902,47.112 301.671,60.374 314.902,73.628 	"/>
	<polygon fill="#1F3057" points="288.386,47.112 301.648,60.371 314.902,47.112 	"/>
	<polygon fill="#6EE0F2" points="328.164,86.886 314.902,100.144 341.417,100.144 	"/>
	<polygon fill="#1CA3C9" points="328.13,86.89 314.902,73.628 314.902,100.144 	"/>
	<polygon fill="#6ECCF5" points="328.188,86.89 341.417,73.628 341.417,100.144 	"/>
	<polygon fill="#00A3DB" points="328.164,86.886 314.902,73.628 341.417,73.628 	"/>
	<polygon fill="#124A7A" points="367.929,73.628 394.445,73.628 381.186,60.371 	"/>
	<polygon fill="#1F3057" points="394.445,47.113 381.214,60.374 394.445,73.628 	"/>
	<polygon fill="#173D7D" points="367.929,47.112 367.929,73.628 381.161,60.374 	"/>
	<polygon fill="#122142" points="367.929,47.112 381.186,60.371 394.445,47.113 	"/>
	<polygon fill="#6ECCF5" points="354.67,86.886 367.933,100.144 341.417,100.144 	"/>
	<polygon fill="#1CA3C9" points="354.701,86.89 367.933,73.628 367.933,100.144 	"/>
	<polygon fill="#B5E3F7" points="354.647,86.89 341.417,73.628 341.417,100.144 	"/>
	<polygon fill="#00ABE3" points="354.67,86.886 367.933,73.628 341.417,73.628 	"/>
	<polygon fill="#124A7A" points="288.386,126.657 301.648,139.915 314.902,126.657 	"/>
	<polygon fill="#1F3057" points="288.386,153.173 301.615,139.91 288.386,126.657 	"/>
	<polygon fill="#173D7D" points="301.671,139.91 314.902,153.173 314.902,126.657 	"/>
	<polygon fill="#122142" points="288.386,153.173 314.902,153.173 301.648,139.915 	"/>
	<polygon fill="#9ED9E8" points="328.164,113.399 314.902,100.142 341.417,100.144 	"/>
	<polygon fill="#1CA3C9" points="328.13,113.395 314.902,126.657 314.902,100.142 	"/>
	<polygon fill="#C7D4EB" points="328.188,113.395 341.417,126.657 341.417,100.144 	"/>
	<polygon fill="#63B5E0" points="328.164,113.399 314.902,126.657 341.417,126.657 	"/>
	<polygon fill="#173D7D" points="367.929,126.657 381.186,139.915 394.445,126.657 	"/>
	<polygon fill="#122142" points="381.214,139.91 394.445,153.173 394.445,126.657 	"/>
	<polygon fill="#124A7A" points="367.929,153.173 381.161,139.91 367.929,126.657 	"/>
	<polygon fill="#1F3057" points="367.929,153.173 394.445,153.173 381.186,139.915 	"/>
	<polygon fill="#9CD9F7" points="354.67,113.399 367.933,100.144 341.417,100.144 	"/>
	<polygon fill="#1CA3C9" points="354.701,113.395 367.933,126.657 367.933,100.144 	"/>
	<polygon fill="#8FCCF0" points="354.647,113.395 341.417,126.657 341.417,100.144 	"/>
	<polygon fill="#0075B0" points="354.67,113.399 367.933,126.657 341.417,126.657 	"/>
	<polygon fill="#5C99BD" points="328.154,60.371 341.417,73.628 314.902,73.628 	"/>
	<polygon fill="#404D9E" points="314.902,47.112 314.902,73.628 328.13,60.374 	"/>
	<polygon fill="#2657A1" points="288.386,73.628 301.648,86.886 314.902,73.628 	"/>
	<polygon fill="#0075B0" points="301.671,86.881 314.902,100.144 314.902,73.628 	"/>
	<polygon fill="#2657A1" points="381.188,86.881 367.933,100.144 367.933,73.628 	"/>
	<polygon fill="#404D9E" points="367.929,73.628 381.186,86.858 394.445,73.628 	"/>
	<polygon fill="#0075B0" points="367.929,47.112 354.676,60.374 367.929,73.628 	"/>
	<polygon fill="#1CA3C9" points="354.678,60.398 341.417,73.628 367.933,73.628 	"/>
	<polygon fill="#0075B0" points="314.902,153.145 328.161,139.882 314.902,126.628 	"/>
	<polygon fill="#1CA3C9" points="328.154,139.855 341.417,126.628 314.902,126.628 	"/>
	<polygon fill="#2657A1" points="301.645,113.404 314.902,100.144 314.902,126.657 	"/>
	<polygon fill="#404D9E" points="288.386,126.657 314.902,126.657 301.648,113.428 	"/>
	<polygon fill="#2657A1" points="367.929,126.628 394.445,126.628 381.186,113.372 	"/>
	<polygon fill="#0075B0" points="381.161,113.375 367.933,100.115 367.933,126.628 	"/>
	<polygon fill="#5C99BD" points="354.678,139.885 341.417,126.628 367.933,126.628 	"/>
	<polygon fill="#404D9E" points="354.701,139.882 367.933,153.145 367.933,126.628 	"/>
</g>
<path fill="#173D7D" d="M46.908,73.898c0-4.486-0.142-8.693-0.421-12.62c-0.282-3.924-0.42-7.5-0.42-10.728h15.565
	c0,2.666,0.069,5.332,0.21,7.993c0.139,2.664,0.211,5.399,0.211,8.204h0.419c1.121-2.385,2.699-4.698,4.733-6.942
	c2.031-2.243,4.451-4.241,7.256-5.996c2.805-1.751,5.96-3.155,9.467-4.207c3.503-1.052,7.291-1.578,11.36-1.578
	c6.448,0,12.023,0.983,16.721,2.946c4.698,1.964,8.589,4.698,11.674,8.202c3.084,3.508,5.365,7.75,6.838,12.726
	c1.472,4.981,2.208,10.413,2.208,16.303v60.792h-16.408V89.886c0-8.273-1.823-14.794-5.47-19.564
	c-3.647-4.765-9.326-7.151-17.039-7.151c-5.331,0-9.921,0.914-13.777,2.735c-3.858,1.825-7.014,4.417-9.464,7.783
	c-2.458,3.366-4.28,7.362-5.47,11.99c-1.194,4.627-1.789,9.749-1.789,15.356v47.959H46.908V73.898z"/>
<path fill="#173D7D" d="M252.953,125.644c0,4.49,0.138,8.698,0.421,12.623c0.278,3.927,0.42,7.504,0.42,10.728h-15.566
	c0-2.661-0.073-5.328-0.211-7.992c-0.141-2.665-0.21-5.398-0.21-8.205h-0.421c-1.123,2.387-2.7,4.701-4.731,6.942
	c-2.036,2.245-4.455,4.241-7.258,5.993c-2.808,1.757-5.961,3.156-9.465,4.209c-3.508,1.052-7.292,1.575-11.359,1.575
	c-6.452,0-12.026-0.979-16.723-2.942c-4.701-1.963-8.591-4.697-11.675-8.204c-3.086-3.506-5.363-7.747-6.836-12.729
	c-1.471-4.974-2.208-10.41-2.208-16.301V50.55h16.407v59.109c0,8.274,1.822,14.794,5.47,19.561c3.644,4.77,9.325,7.154,17.038,7.154
	c5.329,0,9.921-0.912,13.777-2.734c3.856-1.822,7.012-4.42,9.467-7.783c2.453-3.365,4.275-7.364,5.47-11.991
	c1.189-4.628,1.787-9.746,1.787-15.355V50.55h16.408V125.644z"/>
<path fill="#173D7D" d="M515.881,131.113c-5.888,7.574-12.341,12.867-19.352,15.882c-7.015,3.016-15.145,4.521-24.4,4.521
	c-7.715,0-14.657-1.366-20.826-4.101c-6.172-2.735-11.396-6.414-15.67-11.042c-4.278-4.629-7.573-10.099-9.889-16.409
	c-2.312-6.309-3.47-13.041-3.47-20.192c0-7.573,1.264-14.548,3.788-20.93c2.525-6.381,6.026-11.848,10.517-16.407
	c4.486-4.555,9.812-8.099,15.987-10.624c6.171-2.523,12.899-3.786,20.194-3.786c6.868,0,13.18,1.157,18.931,3.471
	c5.747,2.313,10.69,5.679,14.829,10.096c4.135,4.418,7.327,9.818,9.571,16.198c2.24,6.384,3.365,13.64,3.365,21.771v5.259h-79.512
	c0.281,4.206,1.296,8.239,3.051,12.095c1.751,3.858,4.029,7.224,6.836,10.097c2.802,2.877,6.099,5.152,9.887,6.836
	c3.787,1.682,7.92,2.525,12.41,2.525c7.151,0,13.18-1.262,18.091-3.788c4.907-2.522,9.322-6.237,13.25-11.148L515.881,131.113z
	 M501.788,90.938c-0.282-8.415-3.017-15.146-8.204-20.195c-5.189-5.048-12.343-7.572-21.455-7.572
	c-9.117,0-16.479,2.523-22.086,7.572c-5.61,5.049-8.978,11.78-10.098,20.195H501.788z"/>
<g>
	<path fill="#173D7D" d="M547.75,99.772c0-7.711,1.332-14.725,3.997-21.035c2.661-6.311,6.311-11.743,10.939-16.303
		c4.627-4.555,10.164-8.099,16.616-10.624c6.45-2.523,13.463-3.786,21.034-3.786c7.575,0,14.584,1.263,21.036,3.786
		c6.446,2.524,11.989,6.069,16.617,10.624c4.629,4.56,8.274,9.992,10.939,16.303c2.661,6.31,3.995,13.323,3.995,21.035
		c0,7.713-1.334,14.725-3.995,21.033c-2.665,6.312-6.311,11.749-10.939,16.305c-4.628,4.557-10.171,8.098-16.617,10.621
		c-6.452,2.524-13.461,3.785-21.036,3.785c-7.571,0-14.584-1.261-21.034-3.785c-6.452-2.523-11.989-6.064-16.616-10.621
		c-4.629-4.556-8.278-9.992-10.939-16.305C549.082,114.497,547.75,107.485,547.75,99.772z M565.422,99.772
		c0,5.189,0.804,9.99,2.417,14.408c1.61,4.419,3.96,8.278,7.048,11.57c3.083,3.296,6.766,5.891,11.041,7.781
		c4.276,1.895,9.079,2.842,14.409,2.842c5.329,0,10.132-0.947,14.409-2.842c4.276-1.891,7.958-4.485,11.044-7.781
		c3.084-3.292,5.433-7.151,7.046-11.57c1.611-4.418,2.421-9.219,2.421-14.408c0-5.187-0.81-9.992-2.421-14.408
		c-1.613-4.419-3.962-8.275-7.046-11.571c-3.086-3.293-6.768-5.888-11.044-7.782c-4.277-1.893-9.08-2.84-14.409-2.84
		c-5.33,0-10.133,0.947-14.409,2.84c-4.275,1.894-7.958,4.489-11.041,7.782c-3.088,3.296-5.438,7.152-7.048,11.571
		C566.226,89.78,565.422,94.585,565.422,99.772z"/>
</g>
</svg>
